<?xml version="1.0" encoding="utf-8"?>
<!-- Generator: Adobe Illustrator 19.1.0, SVG Export Plug-In . SVG Version: 6.00 Build 0)  -->
<!DOCTYPE svg PUBLIC "-//W3C//DTD SVG 1.1//EN" "http://www.w3.org/Graphics/SVG/1.1/DTD/svg11.dtd">
<svg version="1.1" id="Layer_1" xmlns="http://www.w3.org/2000/svg" xmlns:xlink="http://www.w3.org/1999/xlink" x="0px" y="0px"
	 viewBox="0 0 57 57" style="enable-background:new 0 0 57 57;" xml:space="preserve">
<style type="text/css">
	.st0{opacity:0.5;}
	.st1{fill:url(#SVGID_1_);stroke:#FFFFFF;}
	.st2{fill:url(#SVGID_2_);stroke:#FFFFFF;stroke-miterlimit:10;}
	.st3{fill:url(#SVGID_3_);stroke:#FFFFFF;stroke-miterlimit:10;}
	.st4{fill:url(#SVGID_4_);}
	.st5{fill:url(#SVGID_5_);}
	.st6{fill:url(#SVGID_6_);}
	.st7{fill:none;}
</style>
<g class="st0">
	
		<linearGradient id="SVGID_1_" gradientUnits="userSpaceOnUse" x1="-634.8366" y1="-796.2485" x2="-649.3261" y2="-796.3475" gradientTransform="matrix(-0.9771 -0.323 0.2901 -0.8773 -367.2466 -874.2657)">
		<stop  offset="0.2308" style="stop-color:#979675"/>
		<stop  offset="0.5632" style="stop-color:#999877"/>
		<stop  offset="0.6829" style="stop-color:#9E9D7E"/>
		<stop  offset="0.7683" style="stop-color:#A8A789"/>
		<stop  offset="0.8373" style="stop-color:#B6B49A"/>
		<stop  offset="0.8964" style="stop-color:#C8C6B0"/>
		<stop  offset="0.9482" style="stop-color:#DEDCCB"/>
		<stop  offset="0.9944" style="stop-color:#F7F5EB"/>
		<stop  offset="1" style="stop-color:#FBF9EF"/>
	</linearGradient>
	<path class="st1" d="M30.2,51.8L29,51.4c0,0,0.2-6.2-2.1-6.7c-1.5-1.7,0.2-73.2,5.6-0.2c0,0-1.8,0.9-2.2,2.5
		C29.9,48.5,30.2,51.8,30.2,51.8z"/>
	
		<linearGradient id="SVGID_2_" gradientUnits="userSpaceOnUse" x1="-632.6051" y1="-770.8896" x2="-653.4507" y2="-806.9952" gradientTransform="matrix(-0.9771 -0.323 0.2901 -0.8773 -367.2466 -874.2657)">
		<stop  offset="0" style="stop-color:#48A548"/>
		<stop  offset="1" style="stop-color:#3D9043"/>
	</linearGradient>
	<path class="st2" d="M30.9,45.8c0,0,10.7-7,8.2-21.6C36.6,13.5,30.9,10,30.3,8.7C29.6,7.8,29,6.1,29,6.1l0.5,29.6
		C29.4,35.7,28.5,44.7,30.9,45.8z"/>
	
		<linearGradient id="SVGID_3_" gradientUnits="userSpaceOnUse" x1="-630.6954" y1="-796.8445" x2="-645.4712" y2="-786.9196" gradientTransform="matrix(-0.9771 -0.323 0.2901 -0.8773 -367.2466 -874.2657)">
		<stop  offset="0" style="stop-color:#40A248"/>
		<stop  offset="0.3523" style="stop-color:#4AA74B"/>
		<stop  offset="0.9557" style="stop-color:#66B452"/>
		<stop  offset="1" style="stop-color:#68B553"/>
	</linearGradient>
	<path class="st3" d="M28.3,46.2c0,0-10-6.8-9.4-18.9c0.6-12.1,7.7-18,9-19.1c0.9-1,0.9-1.3,1-2.3c0.6,1.3,0.5,20,0.6,22.2
		C29.8,36.7,29,44.6,28.3,46.2z"/>
</g>
<g>
	
		<linearGradient id="SVGID_4_" gradientUnits="userSpaceOnUse" x1="-634.8366" y1="-796.2485" x2="-649.3261" y2="-796.3475" gradientTransform="matrix(-0.9771 -0.323 0.2901 -0.8773 -367.2466 -874.2657)">
		<stop  offset="0.2308" style="stop-color:#979675"/>
		<stop  offset="0.5632" style="stop-color:#999877"/>
		<stop  offset="0.6829" style="stop-color:#9E9D7E"/>
		<stop  offset="0.7683" style="stop-color:#A8A789"/>
		<stop  offset="0.8373" style="stop-color:#B6B49A"/>
		<stop  offset="0.8964" style="stop-color:#C8C6B0"/>
		<stop  offset="0.9482" style="stop-color:#DEDCCB"/>
		<stop  offset="0.9944" style="stop-color:#F7F5EB"/>
		<stop  offset="1" style="stop-color:#FBF9EF"/>
	</linearGradient>
	<path class="st4" d="M30.2,51.8L29,51.4c0,0,0.2-6.2-2.1-6.7c-1.5-1.7,0.2-73.2,5.6-0.2c0,0-1.8,0.9-2.2,2.5
		C29.9,48.5,30.2,51.8,30.2,51.8z"/>
	
		<linearGradient id="SVGID_5_" gradientUnits="userSpaceOnUse" x1="-632.6051" y1="-770.8896" x2="-653.4507" y2="-806.9952" gradientTransform="matrix(-0.9771 -0.323 0.2901 -0.8773 -367.2466 -874.2657)">
		<stop  offset="0" style="stop-color:#48A548"/>
		<stop  offset="1" style="stop-color:#3D9043"/>
	</linearGradient>
	<path class="st5" d="M30.9,45.8c0,0,10.7-7,8.2-21.6C36.6,13.5,30.9,10,30.3,8.7C29.6,7.8,29,6.1,29,6.1l0.5,29.6
		C29.4,35.7,28.5,44.7,30.9,45.8z"/>
	
		<linearGradient id="SVGID_6_" gradientUnits="userSpaceOnUse" x1="-630.6954" y1="-796.8445" x2="-645.4712" y2="-786.9196" gradientTransform="matrix(-0.9771 -0.323 0.2901 -0.8773 -367.2466 -874.2657)">
		<stop  offset="0" style="stop-color:#40A248"/>
		<stop  offset="0.3523" style="stop-color:#4AA74B"/>
		<stop  offset="0.9557" style="stop-color:#66B452"/>
		<stop  offset="1" style="stop-color:#68B553"/>
	</linearGradient>
	<path class="st6" d="M28.3,46.2c0,0-10-6.8-9.4-18.9c0.6-12.1,7.7-18,9-19.1c0.9-1,0.9-1.3,1-2.3c0.6,1.3,0.5,20,0.6,22.2
		C29.8,36.7,29,44.6,28.3,46.2z"/>
</g>
<rect class="st7" width="57" height="57"/>
</svg>
